<?xml version="1.0" standalone="no"?>
<!DOCTYPE svg PUBLIC "-//W3C//DTD SVG 20010904//EN"
 "http://www.w3.org/TR/2001/REC-SVG-20010904/DTD/svg10.dtd">
<svg version="1.0" xmlns="http://www.w3.org/2000/svg"
 width="512.000000pt" height="512.000000pt" viewBox="0 0 512.000000 512.000000"
 preserveAspectRatio="xMidYMid meet">

<g transform="translate(0.000000,512.000000) scale(0.100000,-0.100000)"
fill="#000000" stroke="none">
<path d="M1169 4358 c-9 -7 -23 -25 -32 -40 -16 -25 -17 -119 -17 -1199 0
-1170 0 -1172 21 -1205 24 -39 28 -41 174 -49 152 -9 189 -13 220 -25 15 -6
158 -10 348 -11 192 0 354 -5 402 -12 l80 -12 3 -273 2 -272 -605 0 c-592 0
-605 0 -625 -20 -11 -11 -20 -31 -20 -45 0 -14 9 -34 20 -45 20 -20 33 -20
1304 -20 1387 0 1304 -3 1321 50 6 20 -9 59 -29 72 -6 4 -284 8 -618 8 l-608
0 0 258 0 257 382 -3 c343 -2 386 -1 422 15 34 14 86 18 294 22 236 6 255 7
268 25 19 27 18 55 -7 106 l-21 43 7 1167 c8 1153 7 1168 -12 1187 -19 19 -42
20 -974 26 -1420 10 -1682 9 -1700 -5z m2555 -135 c10 -6 -2 -2214 -13 -2225
-6 -7 -2427 19 -2448 27 -10 3 -13 233 -13 1103 0 604 3 1102 8 1106 8 9 2451
-3 2466 -11z"/>
<path d="M1490 4083 c-14 -10 -36 -28 -50 -40 -31 -29 -34 -29 -48 2 -13 29
-53 51 -76 42 -20 -8 -21 -43 -2 -54 8 -4 26 -25 41 -47 25 -36 25 -40 11 -70
-27 -58 -30 -83 -9 -94 27 -15 37 -5 71 69 18 40 46 82 71 105 57 52 65 69 45
88 -19 20 -24 20 -54 -1z"/>
<path d="M1786 4078 c-3 -7 -7 -47 -10 -88 -3 -41 -8 -98 -12 -125 -5 -39 -3
-54 9 -63 20 -17 47 -5 48 22 1 19 2 18 8 -4 5 -18 14 -25 31 -25 20 0 27 8
39 47 18 59 5 98 -33 98 -24 0 -25 3 -28 73 -3 66 -5 72 -26 75 -12 2 -24 -3
-26 -10z"/>
<path d="M2512 4058 c-7 -7 -12 -33 -12 -60 0 -47 0 -47 -29 -42 -37 8 -98
-12 -111 -36 -20 -38 -12 -80 24 -116 40 -40 54 -42 90 -13 20 16 26 17 26 6
0 -24 29 -42 48 -31 14 9 16 30 13 150 -3 129 -8 153 -31 154 -4 0 -11 -5 -18
-12z m-52 -171 c0 -7 -6 -21 -13 -31 -12 -16 -14 -16 -26 -2 -7 9 -11 23 -7
31 7 18 46 20 46 2z"/>
<path d="M2096 4048 c-2 -7 -9 -58 -15 -113 -8 -79 -8 -103 3 -113 19 -19 45
-4 54 31 12 45 35 49 27 4 -6 -30 -3 -37 14 -47 17 -9 28 -8 50 3 25 13 31 13
43 0 9 -8 22 -11 32 -7 16 6 17 15 13 57 -4 27 -12 55 -18 63 -14 17 -45 18
-54 3 -5 -7 -14 -3 -27 11 -13 14 -29 20 -44 17 -21 -4 -23 0 -26 47 -3 44 -6
51 -26 54 -12 2 -24 -3 -26 -10z"/>
<path d="M2262 4038 c-25 -25 0 -64 32 -52 21 8 21 50 0 58 -20 8 -18 8 -32
-6z"/>
<path d="M1961 4026 c-16 -20 -3 -46 24 -46 13 0 26 7 29 16 7 19 -10 44 -29
44 -7 0 -18 -6 -24 -14z"/>
<path d="M1957 3953 c-4 -3 -7 -43 -7 -89 0 -66 3 -83 16 -88 31 -12 44 13 44
84 0 38 -3 75 -6 84 -6 16 -35 22 -47 9z"/>
<path d="M2606 3929 c-26 -30 -34 -77 -20 -114 4 -9 29 -27 55 -41 40 -20 53
-22 70 -14 31 17 19 42 -31 66 l-45 22 54 4 c41 2 57 8 68 24 12 19 11 25 -12
53 -22 26 -34 31 -70 31 -36 0 -48 -5 -69 -31z"/>
<path d="M1473 3910 c-38 -45 -42 -75 -12 -91 32 -17 100 -4 121 21 37 46 10
110 -45 110 -25 0 -39 -9 -64 -40z"/>
<path d="M1642 3930 c-25 -24 -29 -58 -7 -66 11 -5 12 -11 4 -26 -22 -41 34
-64 79 -32 25 17 28 35 10 67 -7 12 -11 34 -9 50 2 24 -1 27 -26 27 -16 0 -39
-9 -51 -20z"/>
<path d="M2815 3460 c-4 -6 -4 -33 0 -60 6 -42 3 -54 -14 -76 -27 -35 -26 -49
4 -80 29 -29 26 -67 -7 -94 -22 -18 -16 -46 12 -55 11 -3 20 -17 22 -32 7 -58
68 -51 68 7 0 21 7 30 30 40 17 7 38 27 47 43 17 34 18 32 -61 94 l-28 23 23
19 c20 16 21 21 10 35 -7 9 -20 16 -27 16 -10 0 -14 13 -14 39 0 55 -15 91
-39 91 -11 0 -23 -5 -26 -10z"/>
<path d="M2125 3380 c-3 -5 -13 -10 -21 -10 -8 0 -37 -16 -65 -35 -28 -19 -55
-35 -59 -35 -4 0 -21 16 -39 35 -17 19 -38 35 -47 35 -18 0 -30 -29 -18 -45 5
-7 19 -27 32 -43 l22 -31 -45 -32 c-33 -24 -45 -39 -43 -53 5 -33 35 -30 86 7
l47 35 103 -94 c89 -82 105 -93 122 -84 21 11 27 45 10 55 -6 4 -10 63 -10
144 0 93 -4 141 -12 149 -15 15 -54 16 -63 2z m7 -149 c3 -68 1 -78 -12 -71
-21 11 -95 89 -89 93 16 14 85 57 91 57 3 0 8 -36 10 -79z"/>
<path d="M2287 3303 c6 -112 12 -143 28 -143 18 0 19 13 3 56 -14 39 -5 54 47
79 25 11 35 23 35 38 0 34 -19 47 -70 47 l-47 0 4 -77z m87 38 c3 -4 -6 -13
-20 -20 -33 -15 -34 -14 -34 9 0 15 7 20 24 20 14 0 27 -4 30 -9z"/>
<path d="M2400 3274 c0 -16 36 -104 42 -104 4 0 -4 -16 -17 -36 -28 -41 -31
-54 -12 -54 18 0 87 109 89 142 0 15 1 33 2 40 2 25 -21 17 -35 -13 l-15 -32
-13 31 c-8 18 -20 32 -27 32 -8 0 -14 -3 -14 -6z"/>
<path d="M3004 3105 c-14 -36 3 -46 73 -43 65 3 68 4 68 28 0 24 -3 25 -68 28
-53 2 -68 0 -73 -13z"/>
<path d="M1884 2858 c-4 -7 -10 -102 -12 -210 -4 -180 -3 -200 13 -218 17 -19
32 -20 245 -20 162 0 229 3 238 12 7 7 12 29 12 49 0 21 9 75 20 121 23 95 26
200 8 216 -7 5 -49 12 -93 15 -200 15 -314 27 -339 37 -37 14 -83 13 -92 -2z
m206 -78 c52 -5 132 -12 178 -16 l82 -7 0 -57 c0 -31 -7 -79 -15 -106 -8 -27
-15 -64 -15 -81 0 -30 -3 -33 -32 -33 -25 0 -29 3 -20 12 18 18 15 43 -8 63
l-20 18 21 23 c11 12 19 30 17 41 -6 33 -41 26 -83 -17 l-39 -40 22 -30 23
-30 -25 -9 c-13 -6 -27 -15 -31 -20 -3 -6 -23 -11 -43 -11 -37 0 -37 1 -16 18
50 39 81 156 49 182 -22 18 -49 2 -53 -31 -1 -13 -7 -40 -13 -61 -11 -34 -14
-36 -45 -31 -31 5 -34 3 -34 -20 0 -16 10 -33 28 -46 l27 -20 -57 -1 -58 0 0
134 c0 73 3 148 6 166 6 28 10 31 33 25 14 -3 69 -10 121 -15z"/>
<path d="M2878 2743 c-108 -3 -139 -7 -149 -19 -7 -9 -15 -62 -20 -132 -4 -64
-10 -127 -14 -139 -4 -13 -4 -39 -1 -58 6 -29 17 -42 59 -69 29 -18 75 -52
104 -75 29 -22 57 -41 63 -41 5 0 21 17 34 38 28 44 70 89 108 117 25 18 28
28 37 125 6 58 16 136 23 173 14 80 9 88 -62 85 -25 -1 -106 -4 -182 -5z m172
-85 c-1 -13 -5 -69 -10 -126 l-9 -103 -62 -69 -62 -69 -41 31 c-23 16 -56 40
-75 51 -32 20 -33 21 -27 71 4 28 9 89 13 136 3 47 11 88 17 92 6 4 66 8 134
8 120 0 122 0 122 -22z"/>
<path d="M2846 2652 c-8 -13 -10 -118 -2 -130 4 -7 18 -12 32 -12 13 0 24 -4
24 -10 0 -5 -13 -10 -29 -10 -60 0 -43 -55 20 -65 50 -9 60 0 75 66 13 57 1
79 -42 79 -47 0 -23 19 29 22 45 3 52 6 55 26 2 12 -3 24 -10 26 -30 10 -147
16 -152 8z"/>
<path d="M2632 2618 c-7 -7 -12 -26 -12 -43 0 -17 -5 -36 -12 -43 -9 -9 -9
-15 0 -24 20 -20 42 12 46 65 4 50 -3 64 -22 45z"/>
<path d="M2452 2608 c-19 -19 -14 -56 9 -69 30 -15 52 6 26 25 -10 8 -15 20
-11 29 7 19 -9 30 -24 15z"/>
<path d="M2545 2601 c-3 -12 -3 -26 2 -33 4 -7 6 -21 5 -30 -2 -11 3 -18 12
-18 18 0 27 25 22 65 -4 35 -31 46 -41 16z"/>
</g>
</svg>
